<svg
        version="1.1"
        xmlns="http://www.w3.org/2000/svg"
        xmlns:xlink="http://www.w3.org/1999/xlink"
        width="22px"
        height="22px"
        viewBox="0,0,256,256"
      >
        <g
          fill="none"
          fill-rule="nonzero"
          stroke="none"
          stroke-width="1"
          stroke-linecap="butt"
          stroke-linejoin="miter"
          stroke-miterlimit="10"
          stroke-dasharray=""
          stroke-dashoffset="0"
          font-family="none"
          font-weight="none"
          font-size="none"
          text-anchor="none"
          style="mix-blend-mode: normal"
        >
          <g transform="scale(6.4,6.4)">
            <path d="M14,38h24v1h-24z" fill="#36404d"></path>
            <path
              d="M14.341,38.5c-0.637,0 -1.236,-0.248 -1.687,-0.698l-10.456,-10.456c-0.93,-0.93 -0.93,-2.443 0,-3.373l21.775,-21.774c0.45,-0.451 1.05,-0.699 1.687,-0.699c0.637,0 1.236,0.248 1.687,0.699l10.456,10.456c0.93,0.93 0.93,2.443 0,3.373l-21.776,21.774c-0.45,0.45 -1.049,0.698 -1.686,0.698z"
              fill-opacity="0"
              fill="#ffffff"
            ></path>
            <path
              d="M25.659,2c0.504,0 0.977,0.196 1.333,0.552l10.456,10.456c0.356,0.356 0.552,0.829 0.552,1.333c0,0.504 -0.196,0.977 -0.552,1.333l-21.774,21.774c-0.356,0.356 -0.83,0.552 -1.333,0.552c-0.504,0 -0.977,-0.196 -1.333,-0.552l-10.456,-10.456c-0.356,-0.356 -0.552,-0.829 -0.552,-1.333c0,-0.504 0.196,-0.977 0.552,-1.333l21.774,-21.774c0.356,-0.356 0.83,-0.552 1.333,-0.552M25.659,1c-0.738,0 -1.477,0.282 -2.04,0.845l-21.774,21.774c-1.127,1.127 -1.127,2.953 0,4.08l10.456,10.456c0.563,0.563 1.302,0.845 2.04,0.845c0.738,0 1.477,-0.282 2.04,-0.845l21.774,-21.774c1.127,-1.127 1.127,-2.953 0,-4.08l-10.456,-10.456c-0.563,-0.563 -1.302,-0.845 -2.04,-0.845z"
              fill="#000000"
            ></path>
            <path
              d="M13.035,13.136l10.938,-10.937c0.45,-0.451 1.05,-0.699 1.687,-0.699c0.637,0 1.236,0.248 1.687,0.699l10.456,10.456c0.93,0.93 0.93,2.443 0,3.373l-10.939,10.936z"
              fill-opacity="0.87843"
              fill="#000000"
            ></path>
            <path
              d="M25.659,2c0.504,0 0.977,0.196 1.333,0.552l10.456,10.456c0.356,0.356 0.552,0.829 0.552,1.333c0,0.503 -0.196,0.977 -0.552,1.333l-10.584,10.583l-13.121,-13.121l10.583,-10.584c0.356,-0.356 0.83,-0.552 1.333,-0.552M25.659,1c-0.738,0 -1.477,0.282 -2.04,0.845l-11.29,11.291l14.536,14.536l11.291,-11.291c1.127,-1.127 1.127,-2.953 0,-4.08l-10.457,-10.456c-0.563,-0.563 -1.302,-0.845 -2.04,-0.845z"
              fill="#000000"
            ></path>
            <path
              d="M37.448,15.674l-1.237,1.237l-13.122,-13.122l1.237,-1.237c0.356,-0.356 0.83,-0.552 1.333,-0.552c0.503,0 0.977,0.196 1.333,0.552l10.456,10.456c0.356,0.356 0.552,0.829 0.552,1.333c0,0.503 -0.196,0.977 -0.552,1.333z"
              fill-opacity="0.92157"
              fill="#313132"
            ></path>
          </g>
        </g>
      </svg>