<svg version="1.1"
    xmlns="http://www.w3.org/2000/svg"
    xmlns:xlink="http://www.w3.org/1999/xlink" width="64px" height="64px" viewBox="0,0,256,256">
    <defs>
        <linearGradient x1="18" y1="32.093" x2="42" y2="32.093" gradientUnits="userSpaceOnUse" id="color-1">
            <stop offset="0" stop-color="#3ccbf4"></stop>
            <stop offset="1" stop-color="#1fa0e5"></stop>
        </linearGradient>
        <linearGradient x1="23.91" y1="18.186" x2="23.91" y2="42" gradientUnits="userSpaceOnUse" id="color-2">
            <stop offset="0" stop-color="#28afea"></stop>
            <stop offset="1" stop-color="#0b88da"></stop>
        </linearGradient>
        <linearGradient x1="44.112" y1="29.312" x2="44.112" y2="34.801" gradientUnits="userSpaceOnUse" id="color-3">
            <stop offset="0" stop-color="#dedede"></stop>
            <stop offset="1" stop-color="#d6d6d6"></stop>
        </linearGradient>
    </defs>
    <g fill="none" fill-rule="nonzero" stroke="none" stroke-width="1" stroke-linecap="butt" stroke-linejoin="miter" stroke-miterlimit="10" stroke-dasharray="" stroke-dashoffset="0" font-family="none" font-weight="none" font-size="none" text-anchor="none" style="mix-blend-mode: normal">
        <g transform="scale(5.33333,5.33333)">
            <path d="M40,6h-32c-1.105,0 -2,0.895 -2,2v30c0,1.105 0.895,2 2,2h32c1.105,0 2,-0.895 2,-2v-30c0,-1.105 -0.895,-2 -2,-2z" fill="#50e6ff"></path>
            <path d="M32.065,23.065c-1.149,-1.149 -3.005,-1.174 -4.185,-0.057l-9.88,9.36v9.632h22c1.105,0 2,-0.895 2,-2v-7z" fill="url(#color-1)"></path>
            <circle cx="30.5" cy="14.5" r="3.5" fill="#fff8de"></circle>
            <path d="M8,42h32c0.811,0 1.507,-0.485 1.82,-1.18l-21.755,-21.755c-1.149,-1.149 -3.005,-1.174 -4.185,-0.057l-9.88,9.36v11.632c0,1.105 0.895,2 2,2z" fill="url(#color-2)"></path>
            <path d="M42,29.6v8.8l-3.6,3.6h-8.8z" fill="#000000" opacity="0.05"></path>
            <path d="M42,30.31v7.38l-4.31,4.31h-7.38z" fill="#000000" opacity="0.07"></path>
            <path d="M47.781,30.141l-1.922,-1.921c-0.292,-0.293 -0.768,-0.293 -1.061,0l-0.904,0.905l2.981,2.981l0.905,-0.904c0.293,-0.294 0.293,-0.768 0.001,-1.061" fill="#c94f60"></path>
            <path d="M29.003,44.016l-1.003,3.984l3.985,-1.003l0.418,-3.456z" fill="#f0f0f0"></path>
            <path d="M44.333,34.648l-12.348,12.348l-2.981,-2.981l12.348,-12.348z" fill="#edbe00"></path>
            <path d="M41.349,31.667l2.543,-2.544l2.983,2.981l-2.543,2.544z" fill="url(#color-3)"></path>
            <path d="M28.508,45.985l-0.508,2.015l2.014,-0.508z" fill="#787878"></path>
        </g>
    </g>
</svg>